<?xml version="1.0" encoding="UTF-8" standalone="no"?>
<svg
   xmlns:dc="http://purl.org/dc/elements/1.1/"
   xmlns:cc="http://creativecommons.org/ns#"
   xmlns:rdf="http://www.w3.org/1999/02/22-rdf-syntax-ns#"
   xmlns:svg="http://www.w3.org/2000/svg"
   xmlns="http://www.w3.org/2000/svg"
   viewBox="0 0 576 384"
   height="384"
   width="576"
   xml:space="preserve"
   id="svg2"
   version="1.1"><metadata
     id="metadata8"><rdf:RDF><cc:Work
         rdf:about=""><dc:format>image/svg+xml</dc:format><dc:type
           rdf:resource="http://purl.org/dc/dcmitype/StillImage" /></cc:Work></rdf:RDF></metadata><defs
     id="defs6"><clipPath
       id="clipPath74"
       clipPathUnits="userSpaceOnUse"><path
         id="path72"
         d="M -970,-305 H 1429 V 1023 H -970 Z" /></clipPath><clipPath
       id="clipPath126"
       clipPathUnits="userSpaceOnUse"><path
         id="path124"
         d="M 49.175,41.315625 H 421.2 V 277.2 H 49.175 Z" /></clipPath><clipPath
       id="clipPath136"
       clipPathUnits="userSpaceOnUse"><path
         id="path134"
         d="M 49.175,41.315625 H 421.2 V 277.2 H 49.175 Z" /></clipPath></defs><g
     transform="matrix(1.3333333,0,0,-1.3333333,0,384)"
     id="g10"><path
       id="path12"
       style="fill:#ffffff;fill-opacity:1;fill-rule:nonzero;stroke:none"
       d="M 0,0 H 432 V 288 H 0 Z" /><path
       id="path14"
       style="fill:#ffffff;fill-opacity:1;fill-rule:nonzero;stroke:none"
       d="M 49.175,41.315625 H 421.2 V 277.2 H 49.175 Z" /><g
       transform="translate(58.585227,30.9875)"
       id="g16"><text
         id="text20"
         style="font-variant:normal;font-weight:normal;font-size:10px;font-family:STIXGeneral;-inkscape-font-specification:STIXGeneral-Regular;writing-mode:lr-tb;fill:#262626;fill-opacity:1;fill-rule:nonzero;stroke:none"
         transform="scale(1,-1)"><tspan
           id="tspan18"
           y="0"
           x="0 5 10">300</tspan></text>
</g><g
       transform="translate(103.67917,30.9875)"
       id="g22"><text
         id="text26"
         style="font-variant:normal;font-weight:normal;font-size:10px;font-family:STIXGeneral;-inkscape-font-specification:STIXGeneral-Regular;writing-mode:lr-tb;fill:#262626;fill-opacity:1;fill-rule:nonzero;stroke:none"
         transform="scale(1,-1)"><tspan
           id="tspan24"
           y="0"
           x="0 5 10">320</tspan></text>
</g><g
       transform="translate(148.77311,30.9875)"
       id="g28"><text
         id="text32"
         style="font-variant:normal;font-weight:normal;font-size:10px;font-family:STIXGeneral;-inkscape-font-specification:STIXGeneral-Regular;writing-mode:lr-tb;fill:#262626;fill-opacity:1;fill-rule:nonzero;stroke:none"
         transform="scale(1,-1)"><tspan
           id="tspan30"
           y="0"
           x="0 5 10">340</tspan></text>
</g><g
       transform="translate(193.86705,30.9875)"
       id="g34"><text
         id="text38"
         style="font-variant:normal;font-weight:normal;font-size:10px;font-family:STIXGeneral;-inkscape-font-specification:STIXGeneral-Regular;writing-mode:lr-tb;fill:#262626;fill-opacity:1;fill-rule:nonzero;stroke:none"
         transform="scale(1,-1)"><tspan
           id="tspan36"
           y="0"
           x="0 5 10">360</tspan></text>
</g><g
       transform="translate(238.96098,30.9875)"
       id="g40"><text
         id="text44"
         style="font-variant:normal;font-weight:normal;font-size:10px;font-family:STIXGeneral;-inkscape-font-specification:STIXGeneral-Regular;writing-mode:lr-tb;fill:#262626;fill-opacity:1;fill-rule:nonzero;stroke:none"
         transform="scale(1,-1)"><tspan
           id="tspan42"
           y="0"
           x="0 5 10">380</tspan></text>
</g><g
       transform="translate(284.05492,30.9875)"
       id="g46"><text
         id="text50"
         style="font-variant:normal;font-weight:normal;font-size:10px;font-family:STIXGeneral;-inkscape-font-specification:STIXGeneral-Regular;writing-mode:lr-tb;fill:#262626;fill-opacity:1;fill-rule:nonzero;stroke:none"
         transform="scale(1,-1)"><tspan
           id="tspan48"
           y="0"
           x="0 5 10">400</tspan></text>
</g><g
       transform="translate(329.14886,30.9875)"
       id="g52"><text
         id="text56"
         style="font-variant:normal;font-weight:normal;font-size:10px;font-family:STIXGeneral;-inkscape-font-specification:STIXGeneral-Regular;writing-mode:lr-tb;fill:#262626;fill-opacity:1;fill-rule:nonzero;stroke:none"
         transform="scale(1,-1)"><tspan
           id="tspan54"
           y="0"
           x="0 5 10">420</tspan></text>
</g><g
       transform="translate(374.2428,30.9875)"
       id="g58"><text
         id="text62"
         style="font-variant:normal;font-weight:normal;font-size:10px;font-family:STIXGeneral;-inkscape-font-specification:STIXGeneral-Regular;writing-mode:lr-tb;fill:#262626;fill-opacity:1;fill-rule:nonzero;stroke:none"
         transform="scale(1,-1)"><tspan
           id="tspan60"
           y="0"
           x="0 5 10">440</tspan></text>
</g><g
       transform="translate(231.6875,15.253125)"
       id="g64"><g
         transform="matrix(0.014,0,0,0.014,0,0.515625)"
         id="g66"><g
           id="g68"><g
             clip-path="url(#clipPath74)"
             id="g70"><path
               id="path76"
               style="fill:#262626;fill-opacity:1;fill-rule:nonzero;stroke:none"
               d="M 494,511 C 494,434 481,361 457,291 432,221 400,159 360,106 301,28 233,-10 155,-10 115,-10 83,5 61,35 38,65 27,107 27,161 c 0,100 21,193 65,278 44,85 96,151 157,197 37,28 78,42 122,42 37,0 67,-14 89,-41 22,-28 34,-70 34,-126 z M 147,347 h 233 c 20,68 30,136 30,205 0,70 -18,105 -53,105 -27,0 -56,-21 -87,-61 C 238,555 212,512 192,467 172,422 157,382 147,347 Z M 373,315 H 140 C 120,264 111,209 111,150 111,56 129,10 167,10 c 22,0 45,11 69,33 23,22 43,49 61,83 18,33 33,66 46,99 13,32 23,62 30,90 z" /></g></g></g></g><g
       transform="translate(28.175,48.62358)"
       id="g78"><text
         id="text82"
         style="font-variant:normal;font-weight:normal;font-size:10px;font-family:STIXGeneral;-inkscape-font-specification:STIXGeneral-Regular;writing-mode:lr-tb;fill:#262626;fill-opacity:1;fill-rule:nonzero;stroke:none"
         transform="scale(1,-1)"><tspan
           id="tspan80"
           y="0"
           x="0 5 7.5 12.5">0.00</tspan></text>
</g><g
       transform="translate(28.175,88.563359)"
       id="g84"><text
         id="text88"
         style="font-variant:normal;font-weight:normal;font-size:10px;font-family:STIXGeneral;-inkscape-font-specification:STIXGeneral-Regular;writing-mode:lr-tb;fill:#262626;fill-opacity:1;fill-rule:nonzero;stroke:none"
         transform="scale(1,-1)"><tspan
           id="tspan86"
           y="0"
           x="0 5 7.5 12.5">0.01</tspan></text>
</g><g
       transform="translate(28.175,128.50314)"
       id="g90"><text
         id="text94"
         style="font-variant:normal;font-weight:normal;font-size:10px;font-family:STIXGeneral;-inkscape-font-specification:STIXGeneral-Regular;writing-mode:lr-tb;fill:#262626;fill-opacity:1;fill-rule:nonzero;stroke:none"
         transform="scale(1,-1)"><tspan
           id="tspan92"
           y="0"
           x="0 5 7.5 12.5">0.02</tspan></text>
</g><g
       transform="translate(28.175,168.44292)"
       id="g96"><text
         id="text100"
         style="font-variant:normal;font-weight:normal;font-size:10px;font-family:STIXGeneral;-inkscape-font-specification:STIXGeneral-Regular;writing-mode:lr-tb;fill:#262626;fill-opacity:1;fill-rule:nonzero;stroke:none"
         transform="scale(1,-1)"><tspan
           id="tspan98"
           y="0"
           x="0 5 7.5 12.5">0.03</tspan></text>
</g><g
       transform="translate(28.175,208.3827)"
       id="g102"><text
         id="text106"
         style="font-variant:normal;font-weight:normal;font-size:10px;font-family:STIXGeneral;-inkscape-font-specification:STIXGeneral-Regular;writing-mode:lr-tb;fill:#262626;fill-opacity:1;fill-rule:nonzero;stroke:none"
         transform="scale(1,-1)"><tspan
           id="tspan104"
           y="0"
           x="0 5 7.5 12.5">0.04</tspan></text>
</g><g
       transform="translate(28.175,248.32248)"
       id="g108"><text
         id="text112"
         style="font-variant:normal;font-weight:normal;font-size:10px;font-family:STIXGeneral;-inkscape-font-specification:STIXGeneral-Regular;writing-mode:lr-tb;fill:#262626;fill-opacity:1;fill-rule:nonzero;stroke:none"
         transform="scale(1,-1)"><tspan
           id="tspan110"
           y="0"
           x="0 5 7.5 12.5">0.05</tspan></text>
</g><g
       transform="rotate(90,-58.174219,79.302344)"
       id="g114"><text
         id="text118"
         style="font-variant:normal;font-weight:normal;font-size:14px;font-family:STIXGeneral;-inkscape-font-specification:STIXGeneral-Regular;writing-mode:lr-tb;fill:#262626;fill-opacity:1;fill-rule:nonzero;stroke:none"
         transform="scale(1,-1)"><tspan
           id="tspan116"
           y="0"
           x="0 10.108 16.323999 23.323999 28.77 32.661999 36.554001">Density</tspan></text>
</g><g
       id="g120"><g
         clip-path="url(#clipPath126)"
         id="g122"><path
           id="path128"
           style="fill:none;stroke:#1f77b4;stroke-width:1.5;stroke-linecap:round;stroke-linejoin:round;stroke-miterlimit:10;stroke-dasharray:none;stroke-opacity:1"
           d="m 66.085227,52.037642 191.807363,0.109459 5.42213,0.256824 3.38886,0.372587 2.71103,0.518806 2.03334,0.584626 2.03321,0.816859 2.03334,1.123006 1.35551,0.962226 1.35552,1.168185 1.35551,1.407742 1.35559,1.683857 1.35551,1.998799 1.35552,2.354757 1.35551,2.752879 1.35559,3.193592 1.35551,3.675484 1.35552,4.196769 1.35551,4.753493 1.35559,5.340414 2.03327,9.15712 2.03328,10.561244 2.03334,11.94116 2.0332,13.2231 2.7111,19.3078 4.06655,31.1202 4.06661,30.75238 2.03328,13.99342 2.03334,12.37746 1.35551,7.1102 1.35552,6.04434 1.35558,4.86561 1.35552,3.594 0.67776,1.29757 0.67775,0.95565 0.67776,0.60915 0.67776,0.25957 0.67776,-0.0913 0.67782,-0.4416 0.67776,-0.78986 0.67776,-1.13422 0.67769,-1.47287 0.67776,-1.80457 1.35551,-4.56784 1.35559,-5.77121 1.35551,-6.86564 1.35552,-7.83451 2.03327,-13.25979 2.7111,-19.6965 8.81099,-66.33333 2.03327,-13.41446 2.03327,-12.15451 2.03335,-10.7857 2.0332,-9.380453 2.03327,-8.003029 1.35559,-4.605864 1.35551,-4.057654 1.35552,-3.54626 1.35551,-3.074838 1.35559,-2.645426 1.35551,-2.258186 1.35552,-1.913019 1.35552,-1.608361 1.35558,-1.34213 1.35551,-1.11153 2.03328,-1.305938 2.03334,-0.957741 2.03327,-0.690914 2.7111,-0.618781 2.71096,-0.380882 4.06662,-0.303352 6.09989,-0.165264 12.87753,-0.0511 v 0" /></g></g><g
       id="g130"><g
         clip-path="url(#clipPath136)"
         id="g132"><path
           id="path138"
           style="fill:none;stroke:#ff0000;stroke-width:1.5;stroke-linecap:butt;stroke-linejoin:round;stroke-miterlimit:10;stroke-dasharray:5.55, 2.4;stroke-dashoffset:0;stroke-opacity:1"
           d="m 66.085227,52.211916 12.877535,0.280296 9.488677,0.419879 7.455403,0.542953 6.099958,0.644586 5.42213,0.771481 5.42206,1.004221 4.74431,1.107715 4.74437,1.357316 4.06661,1.388259 4.06662,1.618027 4.06661,1.867166 4.06648,2.132922 4.06662,2.411701 4.06661,2.698298 4.06662,2.986659 4.06654,3.269389 4.06662,3.538407 4.7443,4.437022 5.42213,5.412159 6.77765,7.115726 12.8776,13.614212 4.74424,4.67296 4.06661,3.70563 3.38886,2.81665 3.38879,2.52402 2.7111,1.78196 2.71103,1.55106 2.7111,1.30412 2.71103,1.04337 2.71103,0.77155 2.71103,0.4915 2.7111,0.20607 2.71103,-0.0815 2.7111,-0.36829 2.71103,-0.65105 2.7111,-0.92681 2.71103,-1.19264 2.7111,-1.44593 2.71103,-1.68398 3.38879,-2.41319 3.38886,-2.71994 3.38879,-2.98472 4.06661,-3.86867 5.42213,-5.514 8.81099,-9.376946 8.1331,-8.556373 5.42213,-5.40148 4.74437,-4.425183 4.06661,-3.52688 4.06662,-3.257096 4.06648,-2.9738 4.06661,-2.685484 4.06662,-2.399104 4.06661,-2.120869 4.06655,-1.855682 4.06661,-1.607386 4.06662,-1.378528 4.7443,-1.347151 4.74438,-1.098908 4.7443,-0.884839 5.42213,-0.790898 6.09996,-0.661862 6.77758,-0.517044 8.13316,-0.401751 10.84426,-0.296483 15.58856,-0.175199 11.52202,-0.04516 v 0" /></g></g><g
       id="g140"><path
         id="path142"
         style="fill:none;stroke:#262626;stroke-width:1.25;stroke-linecap:square;stroke-linejoin:miter;stroke-miterlimit:10;stroke-dasharray:none;stroke-opacity:1"
         d="M 49.175,41.315625 V 277.2" /><path
         id="path144"
         style="fill:none;stroke:#262626;stroke-width:1.25;stroke-linecap:square;stroke-linejoin:miter;stroke-miterlimit:10;stroke-dasharray:none;stroke-opacity:1"
         d="M 421.2,41.315625 V 277.2" /><path
         id="path146"
         style="fill:none;stroke:#262626;stroke-width:1.25;stroke-linecap:square;stroke-linejoin:miter;stroke-miterlimit:10;stroke-dasharray:none;stroke-opacity:1"
         d="M 49.175,41.315625 H 421.2" /><path
         id="path148"
         style="fill:none;stroke:#262626;stroke-width:1.25;stroke-linecap:square;stroke-linejoin:miter;stroke-miterlimit:10;stroke-dasharray:none;stroke-opacity:1"
         d="M 49.175,277.2 H 421.2" /><path
         id="path150"
         style="fill:none;stroke:#1f77b4;stroke-width:1.5;stroke-linecap:round;stroke-linejoin:round;stroke-miterlimit:10;stroke-dasharray:none;stroke-opacity:1"
         d="m 61.775,259.7 h 28" /><g
         transform="translate(100.975,254.8)"
         id="g152"><text
           id="text156"
           style="font-variant:normal;font-weight:normal;font-size:14px;font-family:STIXGeneral;-inkscape-font-specification:STIXGeneral-Regular;writing-mode:lr-tb;fill:#262626;fill-opacity:1;fill-rule:nonzero;stroke:none"
           transform="scale(1,-1)"><tspan
             id="tspan154"
             y="0"
             x="0 7.7979999 14.798 20.243999 24.136 30.351999 35.014 38.905998 45.905998">Posterior</tspan></text>
</g><path
         id="path158"
         style="fill:none;stroke:#ff0000;stroke-width:1.5;stroke-linecap:butt;stroke-linejoin:round;stroke-miterlimit:10;stroke-dasharray:5.55, 2.4;stroke-dashoffset:0;stroke-opacity:1"
         d="m 61.775,239.86875 h 28" /><g
         transform="translate(100.975,234.96875)"
         id="g160"><text
           id="text164"
           style="font-variant:normal;font-weight:normal;font-size:14px;font-family:STIXGeneral;-inkscape-font-specification:STIXGeneral-Regular;writing-mode:lr-tb;fill:#262626;fill-opacity:1;fill-rule:nonzero;stroke:none"
           transform="scale(1,-1)"><tspan
             id="tspan162"
             y="0"
             x="0 7.7979999 12.46 16.351999 23.351999">Prior</tspan></text>
</g></g></g></svg>