<?xml version="1.0" encoding="UTF-8" standalone="no"?>
<svg
   xmlns:dc="http://purl.org/dc/elements/1.1/"
   xmlns:cc="http://creativecommons.org/ns#"
   xmlns:rdf="http://www.w3.org/1999/02/22-rdf-syntax-ns#"
   xmlns:svg="http://www.w3.org/2000/svg"
   xmlns="http://www.w3.org/2000/svg"
   viewBox="0 0 576 384"
   height="384"
   width="576"
   xml:space="preserve"
   id="svg2"
   version="1.1"><metadata
     id="metadata8"><rdf:RDF><cc:Work
         rdf:about=""><dc:format>image/svg+xml</dc:format><dc:type
           rdf:resource="http://purl.org/dc/dcmitype/StillImage" /></cc:Work></rdf:RDF></metadata><defs
     id="defs6"><clipPath
       id="clipPath62"
       clipPathUnits="userSpaceOnUse"><path
         id="path60"
         d="M -970,-305 H 1429 V 1023 H -970 Z" /></clipPath><clipPath
       id="clipPath108"
       clipPathUnits="userSpaceOnUse"><path
         id="path106"
         d="M 36.675,41.315625 H 421.2 V 277.2 H 36.675 Z" /></clipPath></defs><g
     transform="matrix(1.3333333,0,0,-1.3333333,0,384)"
     id="g10"><path
       id="path12"
       style="fill:#ffffff;fill-opacity:1;fill-rule:nonzero;stroke:none"
       d="M 0,0 H 432 V 288 H 0 Z" /><path
       id="path14"
       style="fill:#ffffff;fill-opacity:1;fill-rule:nonzero;stroke:none"
       d="M 36.675,41.315625 H 421.2 V 277.2 H 36.675 Z" /><g
       transform="translate(47.727658,30.9875)"
       id="g16"><text
         id="text20"
         style="font-variant:normal;font-weight:normal;font-size:10px;font-family:STIXGeneral;-inkscape-font-specification:STIXGeneral-Regular;writing-mode:lr-tb;fill:#262626;fill-opacity:1;fill-rule:nonzero;stroke:none"
         transform="scale(1,-1)"><tspan
           id="tspan18"
           y="0"
           x="0 5 7.5">0.0</tspan></text>
</g><g
       transform="translate(118.02795,30.9875)"
       id="g22"><text
         id="text26"
         style="font-variant:normal;font-weight:normal;font-size:10px;font-family:STIXGeneral;-inkscape-font-specification:STIXGeneral-Regular;writing-mode:lr-tb;fill:#262626;fill-opacity:1;fill-rule:nonzero;stroke:none"
         transform="scale(1,-1)"><tspan
           id="tspan24"
           y="0"
           x="0 5 7.5">0.2</tspan></text>
</g><g
       transform="translate(188.32823,30.9875)"
       id="g28"><text
         id="text32"
         style="font-variant:normal;font-weight:normal;font-size:10px;font-family:STIXGeneral;-inkscape-font-specification:STIXGeneral-Regular;writing-mode:lr-tb;fill:#262626;fill-opacity:1;fill-rule:nonzero;stroke:none"
         transform="scale(1,-1)"><tspan
           id="tspan30"
           y="0"
           x="0 5 7.5">0.4</tspan></text>
</g><g
       transform="translate(258.62852,30.9875)"
       id="g34"><text
         id="text38"
         style="font-variant:normal;font-weight:normal;font-size:10px;font-family:STIXGeneral;-inkscape-font-specification:STIXGeneral-Regular;writing-mode:lr-tb;fill:#262626;fill-opacity:1;fill-rule:nonzero;stroke:none"
         transform="scale(1,-1)"><tspan
           id="tspan36"
           y="0"
           x="0 5 7.5">0.6</tspan></text>
</g><g
       transform="translate(328.92881,30.9875)"
       id="g40"><text
         id="text44"
         style="font-variant:normal;font-weight:normal;font-size:10px;font-family:STIXGeneral;-inkscape-font-specification:STIXGeneral-Regular;writing-mode:lr-tb;fill:#262626;fill-opacity:1;fill-rule:nonzero;stroke:none"
         transform="scale(1,-1)"><tspan
           id="tspan42"
           y="0"
           x="0 5 7.5">0.8</tspan></text>
</g><g
       transform="translate(399.2291,30.9875)"
       id="g46"><text
         id="text50"
         style="font-variant:normal;font-weight:normal;font-size:10px;font-family:STIXGeneral;-inkscape-font-specification:STIXGeneral-Regular;writing-mode:lr-tb;fill:#262626;fill-opacity:1;fill-rule:nonzero;stroke:none"
         transform="scale(1,-1)"><tspan
           id="tspan48"
           y="0"
           x="0 5 7.5">1.0</tspan></text>
</g><g
       transform="translate(225.4375,15.253125)"
       id="g52"><g
         transform="matrix(0.014,0,0,0.014,0,0.515625)"
         id="g54"><g
           id="g56"><g
             clip-path="url(#clipPath62)"
             id="g58"><path
               id="path64"
               style="fill:#262626;fill-opacity:1;fill-rule:nonzero;stroke:none"
               d="M 494,511 C 494,434 481,361 457,291 432,221 400,159 360,106 301,28 233,-10 155,-10 115,-10 83,5 61,35 38,65 27,107 27,161 c 0,100 21,193 65,278 44,85 96,151 157,197 37,28 78,42 122,42 37,0 67,-14 89,-41 22,-28 34,-70 34,-126 z M 147,347 h 233 c 20,68 30,136 30,205 0,70 -18,105 -53,105 -27,0 -56,-21 -87,-61 C 238,555 212,512 192,467 172,422 157,382 147,347 Z M 373,315 H 140 C 120,264 111,209 111,150 111,56 129,10 167,10 c 22,0 45,11 69,33 23,22 43,49 61,83 18,33 33,66 46,99 13,32 23,62 30,90 z" /></g></g></g></g><g
       transform="translate(28.175,48.62358)"
       id="g66"><text
         id="text70"
         style="font-variant:normal;font-weight:normal;font-size:10px;font-family:STIXGeneral;-inkscape-font-specification:STIXGeneral-Regular;writing-mode:lr-tb;fill:#262626;fill-opacity:1;fill-rule:nonzero;stroke:none"
         transform="scale(1,-1)"><tspan
           id="tspan68"
           y="0"
           x="0">0</tspan></text>
</g><g
       transform="translate(28.175,96.990667)"
       id="g72"><text
         id="text76"
         style="font-variant:normal;font-weight:normal;font-size:10px;font-family:STIXGeneral;-inkscape-font-specification:STIXGeneral-Regular;writing-mode:lr-tb;fill:#262626;fill-opacity:1;fill-rule:nonzero;stroke:none"
         transform="scale(1,-1)"><tspan
           id="tspan74"
           y="0"
           x="0">1</tspan></text>
</g><g
       transform="translate(28.175,145.35776)"
       id="g78"><text
         id="text82"
         style="font-variant:normal;font-weight:normal;font-size:10px;font-family:STIXGeneral;-inkscape-font-specification:STIXGeneral-Regular;writing-mode:lr-tb;fill:#262626;fill-opacity:1;fill-rule:nonzero;stroke:none"
         transform="scale(1,-1)"><tspan
           id="tspan80"
           y="0"
           x="0">2</tspan></text>
</g><g
       transform="translate(28.175,193.72484)"
       id="g84"><text
         id="text88"
         style="font-variant:normal;font-weight:normal;font-size:10px;font-family:STIXGeneral;-inkscape-font-specification:STIXGeneral-Regular;writing-mode:lr-tb;fill:#262626;fill-opacity:1;fill-rule:nonzero;stroke:none"
         transform="scale(1,-1)"><tspan
           id="tspan86"
           y="0"
           x="0">3</tspan></text>
</g><g
       transform="translate(28.175,242.09193)"
       id="g90"><text
         id="text94"
         style="font-variant:normal;font-weight:normal;font-size:10px;font-family:STIXGeneral;-inkscape-font-specification:STIXGeneral-Regular;writing-mode:lr-tb;fill:#262626;fill-opacity:1;fill-rule:nonzero;stroke:none"
         transform="scale(1,-1)"><tspan
           id="tspan92"
           y="0"
           x="0">4</tspan></text>
</g><g
       transform="rotate(90,-58.174219,79.302344)"
       id="g96"><text
         id="text100"
         style="font-variant:normal;font-weight:normal;font-size:14px;font-family:STIXGeneral;-inkscape-font-specification:STIXGeneral-Regular;writing-mode:lr-tb;fill:#262626;fill-opacity:1;fill-rule:nonzero;stroke:none"
         transform="scale(1,-1)"><tspan
           id="tspan98"
           y="0"
           x="0 10.108 16.323999 23.323999 28.77 32.661999 36.554001">Density</tspan></text>
</g><g
       id="g102"><g
         clip-path="url(#clipPath108)"
         id="g104"><path
           id="path110"
           style="fill:none;stroke:#1f77b4;stroke-width:1.5;stroke-linecap:round;stroke-linejoin:round;stroke-miterlimit:10;stroke-dasharray:none;stroke-opacity:1"
           d="m 54.153409,52.271683 0.876111,3.099884 0.876111,4.714505 1.752221,12.036018 1.752222,13.989045 4.380553,37.833435 3.504442,29.58942 2.628334,20.54717 2.628331,18.672 2.628333,16.57209 1.752221,9.82609 1.752223,8.83523 1.75222,7.84809 1.752221,6.87562 1.752221,5.92581 1.752223,5.00529 1.75222,4.11866 1.752221,3.27075 1.752221,2.46355 0.87611,0.94264 0.876113,0.7565 0.87611,0.57727 0.87611,0.40234 0.876111,0.23374 0.876113,0.0711 0.87611,-0.0867 0.876113,-0.23822 0.876108,-0.38435 0.876112,-0.52483 1.752222,-1.44927 1.75221,-1.94545 1.75223,-2.3989 1.75222,-2.81134 1.75222,-3.18357 2.62834,-5.38916 2.62832,-6.01703 2.62834,-6.53079 3.50444,-9.32476 4.38055,-12.33483 18.39833,-52.84565 4.38056,-11.59892 4.38055,-10.92715 3.50443,-8.20858 3.50445,-7.70912 3.50444,-7.19731 3.50444,-6.68187 3.50445,-6.17056 3.50444,-5.669557 3.50444,-5.183673 3.50444,-4.71715 3.50445,-4.272754 3.50445,-3.852758 3.50443,-3.458604 3.50445,-3.091272 3.50444,-2.750868 3.50445,-2.437372 3.50444,-2.150245 3.50444,-1.888734 3.50444,-1.651801 3.50444,-1.438233 4.38056,-1.530933 4.38056,-1.271545 4.38055,-1.048496 5.25668,-1.009664 5.25666,-0.785364 6.13277,-0.689646 7.0089,-0.558184 8.76109,-0.450166 10.51333,-0.303567 14.89388,-0.188577 27.15942,-0.077 91.11553,-0.0058 v 0" /></g></g><g
       id="g112"><path
         id="path114"
         style="fill:none;stroke:#262626;stroke-width:1.25;stroke-linecap:square;stroke-linejoin:miter;stroke-miterlimit:10;stroke-dasharray:none;stroke-opacity:1"
         d="M 36.675,41.315625 V 277.2" /><path
         id="path116"
         style="fill:none;stroke:#262626;stroke-width:1.25;stroke-linecap:square;stroke-linejoin:miter;stroke-miterlimit:10;stroke-dasharray:none;stroke-opacity:1"
         d="M 421.2,41.315625 V 277.2" /><path
         id="path118"
         style="fill:none;stroke:#262626;stroke-width:1.25;stroke-linecap:square;stroke-linejoin:miter;stroke-miterlimit:10;stroke-dasharray:none;stroke-opacity:1"
         d="M 36.675,41.315625 H 421.2" /><path
         id="path120"
         style="fill:none;stroke:#262626;stroke-width:1.25;stroke-linecap:square;stroke-linejoin:miter;stroke-miterlimit:10;stroke-dasharray:none;stroke-opacity:1"
         d="M 36.675,277.2 H 421.2" /></g></g></svg>