<?xml version="1.0" encoding="UTF-8" standalone="no"?>
<svg
   xmlns:dc="http://purl.org/dc/elements/1.1/"
   xmlns:cc="http://creativecommons.org/ns#"
   xmlns:rdf="http://www.w3.org/1999/02/22-rdf-syntax-ns#"
   xmlns:svg="http://www.w3.org/2000/svg"
   xmlns="http://www.w3.org/2000/svg"
   viewBox="0 0 576 384"
   height="384"
   width="576"
   xml:space="preserve"
   id="svg2"
   version="1.1"><metadata
     id="metadata8"><rdf:RDF><cc:Work
         rdf:about=""><dc:format>image/svg+xml</dc:format><dc:type
           rdf:resource="http://purl.org/dc/dcmitype/StillImage" /></cc:Work></rdf:RDF></metadata><defs
     id="defs6"><clipPath
       id="clipPath62"
       clipPathUnits="userSpaceOnUse"><path
         id="path60"
         d="M -970,-305 H 1429 V 1023 H -970 Z" /></clipPath><clipPath
       id="clipPath108"
       clipPathUnits="userSpaceOnUse"><path
         id="path106"
         d="M 36.675,41.315625 H 421.2 V 277.2 H 36.675 Z" /></clipPath><clipPath
       id="clipPath118"
       clipPathUnits="userSpaceOnUse"><path
         id="path116"
         d="M 36.675,41.315625 H 421.2 V 277.2 H 36.675 Z" /></clipPath></defs><g
     transform="matrix(1.3333333,0,0,-1.3333333,0,384)"
     id="g10"><path
       id="path12"
       style="fill:#ffffff;fill-opacity:1;fill-rule:nonzero;stroke:none"
       d="M 0,0 H 432 V 288 H 0 Z" /><path
       id="path14"
       style="fill:#ffffff;fill-opacity:1;fill-rule:nonzero;stroke:none"
       d="M 36.675,41.315625 H 421.2 V 277.2 H 36.675 Z" /><g
       transform="translate(47.868273,30.9875)"
       id="g16"><text
         id="text20"
         style="font-variant:normal;font-weight:normal;font-size:10px;font-family:STIXGeneral;-inkscape-font-specification:STIXGeneral-Regular;writing-mode:lr-tb;fill:#262626;fill-opacity:1;fill-rule:nonzero;stroke:none"
         transform="scale(1,-1)"><tspan
           id="tspan18"
           y="0"
           x="0 5 7.5">0.0</tspan></text>
</g><g
       transform="translate(118.1403,30.9875)"
       id="g22"><text
         id="text26"
         style="font-variant:normal;font-weight:normal;font-size:10px;font-family:STIXGeneral;-inkscape-font-specification:STIXGeneral-Regular;writing-mode:lr-tb;fill:#262626;fill-opacity:1;fill-rule:nonzero;stroke:none"
         transform="scale(1,-1)"><tspan
           id="tspan24"
           y="0"
           x="0 5 7.5">0.2</tspan></text>
</g><g
       transform="translate(188.41232,30.9875)"
       id="g28"><text
         id="text32"
         style="font-variant:normal;font-weight:normal;font-size:10px;font-family:STIXGeneral;-inkscape-font-specification:STIXGeneral-Regular;writing-mode:lr-tb;fill:#262626;fill-opacity:1;fill-rule:nonzero;stroke:none"
         transform="scale(1,-1)"><tspan
           id="tspan30"
           y="0"
           x="0 5 7.5">0.4</tspan></text>
</g><g
       transform="translate(258.68434,30.9875)"
       id="g34"><text
         id="text38"
         style="font-variant:normal;font-weight:normal;font-size:10px;font-family:STIXGeneral;-inkscape-font-specification:STIXGeneral-Regular;writing-mode:lr-tb;fill:#262626;fill-opacity:1;fill-rule:nonzero;stroke:none"
         transform="scale(1,-1)"><tspan
           id="tspan36"
           y="0"
           x="0 5 7.5">0.6</tspan></text>
</g><g
       transform="translate(328.95637,30.9875)"
       id="g40"><text
         id="text44"
         style="font-variant:normal;font-weight:normal;font-size:10px;font-family:STIXGeneral;-inkscape-font-specification:STIXGeneral-Regular;writing-mode:lr-tb;fill:#262626;fill-opacity:1;fill-rule:nonzero;stroke:none"
         transform="scale(1,-1)"><tspan
           id="tspan42"
           y="0"
           x="0 5 7.5">0.8</tspan></text>
</g><g
       transform="translate(399.22839,30.9875)"
       id="g46"><text
         id="text50"
         style="font-variant:normal;font-weight:normal;font-size:10px;font-family:STIXGeneral;-inkscape-font-specification:STIXGeneral-Regular;writing-mode:lr-tb;fill:#262626;fill-opacity:1;fill-rule:nonzero;stroke:none"
         transform="scale(1,-1)"><tspan
           id="tspan48"
           y="0"
           x="0 5 7.5">1.0</tspan></text>
</g><g
       transform="translate(225.4375,15.253125)"
       id="g52"><g
         transform="matrix(0.014,0,0,0.014,0,0.515625)"
         id="g54"><g
           id="g56"><g
             clip-path="url(#clipPath62)"
             id="g58"><path
               id="path64"
               style="fill:#262626;fill-opacity:1;fill-rule:nonzero;stroke:none"
               d="M 494,511 C 494,434 481,361 457,291 432,221 400,159 360,106 301,28 233,-10 155,-10 115,-10 83,5 61,35 38,65 27,107 27,161 c 0,100 21,193 65,278 44,85 96,151 157,197 37,28 78,42 122,42 37,0 67,-14 89,-41 22,-28 34,-70 34,-126 z M 147,347 h 233 c 20,68 30,136 30,205 0,70 -18,105 -53,105 -27,0 -56,-21 -87,-61 C 238,555 212,512 192,467 172,422 157,382 147,347 Z M 373,315 H 140 C 120,264 111,209 111,150 111,56 129,10 167,10 c 22,0 45,11 69,33 23,22 43,49 61,83 18,33 33,66 46,99 13,32 23,62 30,90 z" /></g></g></g></g><g
       transform="translate(28.175,48.62358)"
       id="g66"><text
         id="text70"
         style="font-variant:normal;font-weight:normal;font-size:10px;font-family:STIXGeneral;-inkscape-font-specification:STIXGeneral-Regular;writing-mode:lr-tb;fill:#262626;fill-opacity:1;fill-rule:nonzero;stroke:none"
         transform="scale(1,-1)"><tspan
           id="tspan68"
           y="0"
           x="0">0</tspan></text>
</g><g
       transform="translate(28.175,96.990756)"
       id="g72"><text
         id="text76"
         style="font-variant:normal;font-weight:normal;font-size:10px;font-family:STIXGeneral;-inkscape-font-specification:STIXGeneral-Regular;writing-mode:lr-tb;fill:#262626;fill-opacity:1;fill-rule:nonzero;stroke:none"
         transform="scale(1,-1)"><tspan
           id="tspan74"
           y="0"
           x="0">1</tspan></text>
</g><g
       transform="translate(28.175,145.35793)"
       id="g78"><text
         id="text82"
         style="font-variant:normal;font-weight:normal;font-size:10px;font-family:STIXGeneral;-inkscape-font-specification:STIXGeneral-Regular;writing-mode:lr-tb;fill:#262626;fill-opacity:1;fill-rule:nonzero;stroke:none"
         transform="scale(1,-1)"><tspan
           id="tspan80"
           y="0"
           x="0">2</tspan></text>
</g><g
       transform="translate(28.175,193.72511)"
       id="g84"><text
         id="text88"
         style="font-variant:normal;font-weight:normal;font-size:10px;font-family:STIXGeneral;-inkscape-font-specification:STIXGeneral-Regular;writing-mode:lr-tb;fill:#262626;fill-opacity:1;fill-rule:nonzero;stroke:none"
         transform="scale(1,-1)"><tspan
           id="tspan86"
           y="0"
           x="0">3</tspan></text>
</g><g
       transform="translate(28.175,242.09228)"
       id="g90"><text
         id="text94"
         style="font-variant:normal;font-weight:normal;font-size:10px;font-family:STIXGeneral;-inkscape-font-specification:STIXGeneral-Regular;writing-mode:lr-tb;fill:#262626;fill-opacity:1;fill-rule:nonzero;stroke:none"
         transform="scale(1,-1)"><tspan
           id="tspan92"
           y="0"
           x="0">4</tspan></text>
</g><g
       transform="rotate(90,-58.174219,79.302344)"
       id="g96"><text
         id="text100"
         style="font-variant:normal;font-weight:normal;font-size:14px;font-family:STIXGeneral;-inkscape-font-specification:STIXGeneral-Regular;writing-mode:lr-tb;fill:#262626;fill-opacity:1;fill-rule:nonzero;stroke:none"
         transform="scale(1,-1)"><tspan
           id="tspan98"
           y="0"
           x="0 10.108 16.323999 23.323999 28.77 32.661999 36.554001">Density</tspan></text>
</g><g
       id="g102"><g
         clip-path="url(#clipPath108)"
         id="g104"><path
           id="path110"
           style="fill:none;stroke:#1f77b4;stroke-width:1.5;stroke-linecap:round;stroke-linejoin:round;stroke-miterlimit:10;stroke-dasharray:none;stroke-opacity:1"
           d="m 54.153409,52.037642 13.141661,0.0883 4.380555,0.277792 2.628331,0.351054 2.628331,0.560624 2.628334,0.835954 1.752221,0.744144 1.752222,0.91739 1.752221,1.110457 1.752223,1.322403 1.75222,1.551846 1.752223,1.797087 1.75222,2.056007 1.752223,2.326361 1.75222,2.605433 1.752221,2.890532 2.628329,4.876252 2.628336,5.521491 2.62833,6.148854 2.62833,6.743033 2.62834,7.289564 3.50444,10.46256 3.50444,11.14767 5.25667,17.54822 9.63722,32.34344 3.50444,11.02572 3.50444,10.27345 2.62833,7.08957 2.62833,6.47869 2.62834,5.80216 1.75222,3.46433 1.75222,3.12579 1.75221,2.77494 1.75223,2.41528 1.75222,2.04865 1.75222,1.6768 1.75223,1.30214 1.75222,0.9276 1.75222,0.55404 1.75222,0.18392 1.75222,-0.18116 1.75222,-0.53827 1.75222,-0.88706 1.75223,-1.22558 1.75221,-1.55139 1.75222,-1.8655 1.75222,-2.16439 1.75223,-2.44775 2.62833,-4.16733 2.62834,-4.71057 2.62833,-5.19209 3.50443,-7.56348 3.50445,-8.15625 4.38056,-10.80011 7.00888,-18.01509 8.76111,-22.40778 5.25666,-12.74762 4.38054,-9.98034 3.50445,-7.48213 3.50445,-6.99087 3.50444,-6.472293 3.50445,-5.939155 3.50444,-5.402071 2.62833,-3.702323 2.62833,-3.409109 2.62833,-3.123815 2.62835,-2.848584 2.62833,-2.584759 2.62833,-2.333858 2.62833,-2.09693 2.62835,-1.874604 3.50445,-2.179579 3.50444,-1.847288 3.50443,-1.550948 3.50444,-1.289592 3.50445,-1.061628 4.38054,-1.053972 4.38054,-0.802399 5.25668,-0.699836 6.13278,-0.544099 7.00889,-0.373359 8.7611,-0.237988 14.01776,-0.129063 38.54887,-0.02753 35.92055,-1.2e-5 v 0" /></g></g><g
       id="g112"><g
         clip-path="url(#clipPath118)"
         id="g114"><path
           id="path120"
           style="fill:none;stroke:#ff0000;stroke-width:1.5;stroke-linecap:butt;stroke-linejoin:round;stroke-miterlimit:10;stroke-dasharray:5.55, 2.4;stroke-dashoffset:0;stroke-opacity:1"
           d="m 54.153409,52.058668 0.876111,2.680728 0.87611,4.518476 1.752222,11.819258 1.752221,13.884035 3.504443,30.161095 4.380554,37.30984 2.628333,20.64249 2.628332,18.78178 2.628332,16.6881 1.75222,9.90455 1.752223,8.91276 1.75222,7.92436 1.752223,6.94975 1.75222,5.9975 1.752223,5.07295 1.752221,4.1843 1.752222,3.33216 1.752221,2.52114 0.876111,0.96949 0.876112,0.78369 0.876111,0.60229 0.876109,0.4275 0.876111,0.25741 0.876109,0.0937 0.876112,-0.065 0.876109,-0.217 0.876114,-0.36447 0.876106,-0.50584 1.752226,-1.41346 1.75222,-1.9133 1.75222,-2.3701 1.75222,-2.78565 1.75222,-3.16061 2.62834,-5.36005 2.62833,-5.99403 2.62833,-6.51341 3.50445,-9.30823 4.38055,-12.32453 9.63722,-28.11014 6.13277,-17.52399 5.25666,-14.29552 4.38056,-11.22677 3.50443,-8.46785 3.50445,-7.97852 3.50444,-7.47155 3.50445,-6.95667 3.50443,-6.44188 3.50445,-5.93447 3.50443,-5.439469 3.50445,-4.962004 3.50445,-4.505259 3.50444,-4.071912 3.50444,-3.663756 3.50444,-3.281919 3.50445,-2.927058 3.50445,-2.599271 3.50443,-2.29821 3.50445,-2.023168 3.50444,-1.773331 3.50445,-1.547524 3.50443,-1.344519 4.38057,-1.427652 4.38054,-1.182405 4.38056,-0.972181 5.25667,-0.933137 6.13277,-0.826227 6.13278,-0.604117 7.88501,-0.533537 9.63722,-0.39503 12.26553,-0.25523 18.39832,-0.135131 45.55776,-0.03508 63.07998,-1.31e-4 v 0" /></g></g><g
       id="g122"><path
         id="path124"
         style="fill:none;stroke:#262626;stroke-width:1.25;stroke-linecap:square;stroke-linejoin:miter;stroke-miterlimit:10;stroke-dasharray:none;stroke-opacity:1"
         d="M 36.675,41.315625 V 277.2" /><path
         id="path126"
         style="fill:none;stroke:#262626;stroke-width:1.25;stroke-linecap:square;stroke-linejoin:miter;stroke-miterlimit:10;stroke-dasharray:none;stroke-opacity:1"
         d="M 421.2,41.315625 V 277.2" /><path
         id="path128"
         style="fill:none;stroke:#262626;stroke-width:1.25;stroke-linecap:square;stroke-linejoin:miter;stroke-miterlimit:10;stroke-dasharray:none;stroke-opacity:1"
         d="M 36.675,41.315625 H 421.2" /><path
         id="path130"
         style="fill:none;stroke:#262626;stroke-width:1.25;stroke-linecap:square;stroke-linejoin:miter;stroke-miterlimit:10;stroke-dasharray:none;stroke-opacity:1"
         d="M 36.675,277.2 H 421.2" /><path
         id="path132"
         style="fill:none;stroke:#1f77b4;stroke-width:1.5;stroke-linecap:round;stroke-linejoin:round;stroke-miterlimit:10;stroke-dasharray:none;stroke-opacity:1"
         d="m 318.8375,259.7 h 28" /><g
         transform="translate(358.0375,254.8)"
         id="g134"><text
           id="text138"
           style="font-variant:normal;font-weight:normal;font-size:14px;font-family:STIXGeneral;-inkscape-font-specification:STIXGeneral-Regular;writing-mode:lr-tb;fill:#262626;fill-opacity:1;fill-rule:nonzero;stroke:none"
           transform="scale(1,-1)"><tspan
             id="tspan136"
             y="0"
             x="0 7.7979999 14.798 20.243999 24.136 30.351999 35.014 38.905998 45.905998">Posterior</tspan></text>
</g><path
         id="path140"
         style="fill:none;stroke:#ff0000;stroke-width:1.5;stroke-linecap:butt;stroke-linejoin:round;stroke-miterlimit:10;stroke-dasharray:5.55, 2.4;stroke-dashoffset:0;stroke-opacity:1"
         d="m 318.8375,239.86875 h 28" /><g
         transform="translate(358.0375,234.96875)"
         id="g142"><text
           id="text146"
           style="font-variant:normal;font-weight:normal;font-size:14px;font-family:STIXGeneral;-inkscape-font-specification:STIXGeneral-Regular;writing-mode:lr-tb;fill:#262626;fill-opacity:1;fill-rule:nonzero;stroke:none"
           transform="scale(1,-1)"><tspan
             id="tspan144"
             y="0"
             x="0 7.7979999 12.46 16.351999 23.351999">Prior</tspan></text>
</g></g></g></svg>