<?xml version="1.0" encoding="UTF-8" standalone="no"?>
<svg
   xmlns:dc="http://purl.org/dc/elements/1.1/"
   xmlns:cc="http://creativecommons.org/ns#"
   xmlns:rdf="http://www.w3.org/1999/02/22-rdf-syntax-ns#"
   xmlns:svg="http://www.w3.org/2000/svg"
   xmlns="http://www.w3.org/2000/svg"
   viewBox="0 0 576 384"
   height="384"
   width="576"
   xml:space="preserve"
   id="svg2"
   version="1.1"><metadata
     id="metadata8"><rdf:RDF><cc:Work
         rdf:about=""><dc:format>image/svg+xml</dc:format><dc:type
           rdf:resource="http://purl.org/dc/dcmitype/StillImage" /></cc:Work></rdf:RDF></metadata><defs
     id="defs6"><clipPath
       id="clipPath30"
       clipPathUnits="userSpaceOnUse"><path
         id="path28"
         d="M -970,-443 H 2000 V 1023 H -970 Z" /></clipPath><clipPath
       id="clipPath48"
       clipPathUnits="userSpaceOnUse"><path
         id="path46"
         d="M -970,-443 H 2000 V 1023 H -970 Z" /></clipPath><clipPath
       id="clipPath86"
       clipPathUnits="userSpaceOnUse"><path
         id="path84"
         d="M -970,-305 H 1429 V 1023 H -970 Z" /></clipPath><clipPath
       id="clipPath132"
       clipPathUnits="userSpaceOnUse"><path
         id="path130"
         d="M 44.175,41.315625 H 421.2 V 277.2 H 44.175 Z" /></clipPath><clipPath
       id="clipPath142"
       clipPathUnits="userSpaceOnUse"><path
         id="path140"
         d="M 44.175,41.315625 H 421.2 V 277.2 H 44.175 Z" /></clipPath></defs><g
     transform="matrix(1.3333333,0,0,-1.3333333,0,384)"
     id="g10"><path
       id="path12"
       style="fill:#ffffff;fill-opacity:1;fill-rule:nonzero;stroke:none"
       d="M 0,0 H 432 V 288 H 0 Z" /><path
       id="path14"
       style="fill:#ffffff;fill-opacity:1;fill-rule:nonzero;stroke:none"
       d="M 44.175,41.315625 H 421.2 V 277.2 H 44.175 Z" /><g
       transform="translate(83.953125,30.9875)"
       id="g16"><text
         id="text20"
         style="font-variant:normal;font-weight:normal;font-size:10px;font-family:STIXGeneral;-inkscape-font-specification:STIXGeneral-Regular;writing-mode:lr-tb;fill:#262626;fill-opacity:1;fill-rule:nonzero;stroke:none"
         transform="matrix(1,0,0,-1,6.8499908,0)"><tspan
           id="tspan18"
           y="0"
           x="0">4</tspan></text>
<g
         transform="scale(0.01)"
         id="g22"><g
           id="g24"><g
             clip-path="url(#clipPath30)"
             id="g26"><path
               id="path32"
               style="fill:#262626;fill-opacity:1;fill-rule:nonzero;stroke:none"
               d="M 621,220 H 64 v 66 h 557 z" /></g></g></g></g><g
       transform="translate(141.07812,30.9875)"
       id="g34"><text
         id="text38"
         style="font-variant:normal;font-weight:normal;font-size:10px;font-family:STIXGeneral;-inkscape-font-specification:STIXGeneral-Regular;writing-mode:lr-tb;fill:#262626;fill-opacity:1;fill-rule:nonzero;stroke:none"
         transform="matrix(1,0,0,-1,6.8499908,0)"><tspan
           id="tspan36"
           y="0"
           x="0">2</tspan></text>
<g
         transform="scale(0.01)"
         id="g40"><g
           id="g42"><g
             clip-path="url(#clipPath48)"
             id="g44"><path
               id="path50"
               style="fill:#262626;fill-opacity:1;fill-rule:nonzero;stroke:none"
               d="M 621,220 H 64 v 66 h 557 z" /></g></g></g></g><g
       transform="translate(201.625,30.9875)"
       id="g52"><text
         id="text56"
         style="font-variant:normal;font-weight:normal;font-size:10px;font-family:STIXGeneral;-inkscape-font-specification:STIXGeneral-Regular;writing-mode:lr-tb;fill:#262626;fill-opacity:1;fill-rule:nonzero;stroke:none"
         transform="scale(1,-1)"><tspan
           id="tspan54"
           y="0"
           x="0">0</tspan></text>
</g><g
       transform="translate(258.75,30.9875)"
       id="g58"><text
         id="text62"
         style="font-variant:normal;font-weight:normal;font-size:10px;font-family:STIXGeneral;-inkscape-font-specification:STIXGeneral-Regular;writing-mode:lr-tb;fill:#262626;fill-opacity:1;fill-rule:nonzero;stroke:none"
         transform="scale(1,-1)"><tspan
           id="tspan60"
           y="0"
           x="0">2</tspan></text>
</g><g
       transform="translate(315.875,30.9875)"
       id="g64"><text
         id="text68"
         style="font-variant:normal;font-weight:normal;font-size:10px;font-family:STIXGeneral;-inkscape-font-specification:STIXGeneral-Regular;writing-mode:lr-tb;fill:#262626;fill-opacity:1;fill-rule:nonzero;stroke:none"
         transform="scale(1,-1)"><tspan
           id="tspan66"
           y="0"
           x="0">4</tspan></text>
</g><g
       transform="translate(373,30.9875)"
       id="g70"><text
         id="text74"
         style="font-variant:normal;font-weight:normal;font-size:10px;font-family:STIXGeneral;-inkscape-font-specification:STIXGeneral-Regular;writing-mode:lr-tb;fill:#262626;fill-opacity:1;fill-rule:nonzero;stroke:none"
         transform="scale(1,-1)"><tspan
           id="tspan72"
           y="0"
           x="0">6</tspan></text>
</g><g
       transform="translate(229.1875,15.253125)"
       id="g76"><g
         transform="matrix(0.014,0,0,0.014,0,0.515625)"
         id="g78"><g
           id="g80"><g
             clip-path="url(#clipPath86)"
             id="g82"><path
               id="path88"
               style="fill:#262626;fill-opacity:1;fill-rule:nonzero;stroke:none"
               d="M 494,511 C 494,434 481,361 457,291 432,221 400,159 360,106 301,28 233,-10 155,-10 115,-10 83,5 61,35 38,65 27,107 27,161 c 0,100 21,193 65,278 44,85 96,151 157,197 37,28 78,42 122,42 37,0 67,-14 89,-41 22,-28 34,-70 34,-126 z M 147,347 h 233 c 20,68 30,136 30,205 0,70 -18,105 -53,105 -27,0 -56,-21 -87,-61 C 238,555 212,512 192,467 172,422 157,382 147,347 Z M 373,315 H 140 C 120,264 111,209 111,150 111,56 129,10 167,10 c 22,0 45,11 69,33 23,22 43,49 61,83 18,33 33,66 46,99 13,32 23,62 30,90 z" /></g></g></g></g><g
       transform="translate(28.175,48.62358)"
       id="g90"><text
         id="text94"
         style="font-variant:normal;font-weight:normal;font-size:10px;font-family:STIXGeneral;-inkscape-font-specification:STIXGeneral-Regular;writing-mode:lr-tb;fill:#262626;fill-opacity:1;fill-rule:nonzero;stroke:none"
         transform="scale(1,-1)"><tspan
           id="tspan92"
           y="0"
           x="0 5 7.5">0.0</tspan></text>
</g><g
       transform="translate(28.175,93.852842)"
       id="g96"><text
         id="text100"
         style="font-variant:normal;font-weight:normal;font-size:10px;font-family:STIXGeneral;-inkscape-font-specification:STIXGeneral-Regular;writing-mode:lr-tb;fill:#262626;fill-opacity:1;fill-rule:nonzero;stroke:none"
         transform="scale(1,-1)"><tspan
           id="tspan98"
           y="0"
           x="0 5 7.5">0.1</tspan></text>
</g><g
       transform="translate(28.175,139.0821)"
       id="g102"><text
         id="text106"
         style="font-variant:normal;font-weight:normal;font-size:10px;font-family:STIXGeneral;-inkscape-font-specification:STIXGeneral-Regular;writing-mode:lr-tb;fill:#262626;fill-opacity:1;fill-rule:nonzero;stroke:none"
         transform="scale(1,-1)"><tspan
           id="tspan104"
           y="0"
           x="0 5 7.5">0.2</tspan></text>
</g><g
       transform="translate(28.175,184.31137)"
       id="g108"><text
         id="text112"
         style="font-variant:normal;font-weight:normal;font-size:10px;font-family:STIXGeneral;-inkscape-font-specification:STIXGeneral-Regular;writing-mode:lr-tb;fill:#262626;fill-opacity:1;fill-rule:nonzero;stroke:none"
         transform="scale(1,-1)"><tspan
           id="tspan110"
           y="0"
           x="0 5 7.5">0.3</tspan></text>
</g><g
       transform="translate(28.175,229.54063)"
       id="g114"><text
         id="text118"
         style="font-variant:normal;font-weight:normal;font-size:10px;font-family:STIXGeneral;-inkscape-font-specification:STIXGeneral-Regular;writing-mode:lr-tb;fill:#262626;fill-opacity:1;fill-rule:nonzero;stroke:none"
         transform="scale(1,-1)"><tspan
           id="tspan116"
           y="0"
           x="0 5 7.5">0.4</tspan></text>
</g><g
       transform="rotate(90,-58.174219,79.302344)"
       id="g120"><text
         id="text124"
         style="font-variant:normal;font-weight:normal;font-size:14px;font-family:STIXGeneral;-inkscape-font-specification:STIXGeneral-Regular;writing-mode:lr-tb;fill:#262626;fill-opacity:1;fill-rule:nonzero;stroke:none"
         transform="scale(1,-1)"><tspan
           id="tspan122"
           y="0"
           x="0 10.108 16.323999 23.323999 28.77 32.661999 36.554001">Density</tspan></text>
</g><g
       id="g126"><g
         clip-path="url(#clipPath132)"
         id="g128"><path
           id="path134"
           style="fill:none;stroke:#1f77b4;stroke-width:1.5;stroke-linecap:round;stroke-linejoin:round;stroke-miterlimit:10;stroke-dasharray:none;stroke-opacity:1"
           d="m 61.3125,52.037645 60.9906,0.10306 9.44925,0.247364 6.01316,0.370803 4.29512,0.454209 4.2951,0.697421 3.43609,0.801867 2.57707,0.786539 2.57707,0.981515 2.57707,1.213616 2.57706,1.486744 2.57707,1.804386 2.57707,2.169313 2.57707,2.583279 2.57707,3.046691 2.57707,3.558238 2.57706,4.114677 2.57707,4.710371 2.57707,5.337234 2.57707,5.98448 2.57707,6.638647 2.57706,7.283691 2.57707,7.90123 3.43609,11.41015 3.43609,12.24801 5.15414,19.39564 6.87218,26.01125 3.43609,12.17394 2.57707,8.41561 2.57707,7.60507 1.71804,4.53667 1.71805,4.05628 1.71804,3.53435 1.71805,2.97566 1.71803,2.38557 1.71805,1.77012 0.85902,0.64805 0.85902,0.48759 0.85902,0.3258 0.85903,0.16311 h 0.85902 l 0.85902,-0.16311 0.85902,-0.3258 0.85903,-0.48758 0.85902,-0.64806 0.85902,-0.80678 1.71805,-2.08065 1.71804,-2.68417 1.71805,-3.25929 1.71804,-3.80021 1.71805,-4.30195 2.57707,-7.2971 2.57707,-8.16475 2.57706,-8.85771 3.4361,-12.57481 12.88532,-48.28901 3.43609,-11.63852 2.57707,-8.09755 2.57706,-7.49354 2.57708,-6.855539 2.57706,-6.202499 2.57707,-5.551341 2.57707,-4.916337 2.57707,-4.309237 2.57706,-3.738953 2.57708,-3.211979 2.57706,-2.732277 2.57707,-2.301807 2.57706,-1.920663 2.57708,-1.587525 2.57706,-1.299915 2.57707,-1.05456 2.57707,-0.84766 3.43609,-0.867203 3.4361,-0.630123 4.29511,-0.54081 5.15412,-0.399163 6.87219,-0.276409 10.30827,-0.153173 23.1936,-0.04912 32.64287,-0.0014 v 0" /></g></g><g
       id="g136"><g
         clip-path="url(#clipPath142)"
         id="g138"><path
           id="path144"
           style="fill:none;stroke:#ff7f0e;stroke-width:1.5;stroke-linecap:butt;stroke-linejoin:round;stroke-miterlimit:10;stroke-dasharray:5.55, 2.4;stroke-dashoffset:0;stroke-opacity:1"
           d="m 61.3125,52.037642 h 142.59775 l 0.85902,133.013008 5.15414,23.09474 3.43609,14.46963 2.57707,10.00255 2.57707,9.0392 1.71804,5.39217 1.71805,4.82118 1.71804,4.20083 1.71805,3.5368 1.71803,2.83541 0.85902,1.14501 0.85903,0.95892 0.85902,0.77025 0.85902,0.57953 0.85902,0.38724 0.85903,0.19387 h 0.85902 l 0.85902,-0.19387 0.85902,-0.38724 0.85903,-0.57952 0.85902,-0.77026 0.85902,-0.95892 1.71805,-2.47301 1.71804,-3.19034 1.71805,-3.87389 1.71804,-4.51683 1.71805,-5.11319 1.71804,-5.65761 2.57707,-9.38315 2.57707,-10.27719 3.43609,-14.72391 6.01316,-27.14999 5.15412,-23.05309 3.43609,-14.55767 3.4361,-13.56179 2.57706,-9.39119 2.57707,-8.6572 2.57707,-7.89051 2.57707,-7.112993 2.57706,-6.343699 2.57707,-5.598639 2.57707,-4.890584 2.57707,-4.229238 2.57706,-3.621203 2.57707,-3.070424 2.57707,-2.57839 2.57707,-2.14465 2.57707,-1.767101 2.57707,-1.44247 2.57706,-1.166606 2.57707,-0.934862 3.43609,-0.953076 3.43609,-0.689744 4.29512,-0.589375 5.15414,-0.43269 6.01315,-0.272161 9.44925,-0.174326 18.89849,-0.06392 37.797,-0.0038 v 0" /></g></g><g
       id="g146"><path
         id="path148"
         style="fill:none;stroke:#262626;stroke-width:1.25;stroke-linecap:square;stroke-linejoin:miter;stroke-miterlimit:10;stroke-dasharray:none;stroke-opacity:1"
         d="M 44.175,41.315625 V 277.2" /><path
         id="path150"
         style="fill:none;stroke:#262626;stroke-width:1.25;stroke-linecap:square;stroke-linejoin:miter;stroke-miterlimit:10;stroke-dasharray:none;stroke-opacity:1"
         d="M 421.2,41.315625 V 277.2" /><path
         id="path152"
         style="fill:none;stroke:#262626;stroke-width:1.25;stroke-linecap:square;stroke-linejoin:miter;stroke-miterlimit:10;stroke-dasharray:none;stroke-opacity:1"
         d="M 44.175,41.315625 H 421.2" /><path
         id="path154"
         style="fill:none;stroke:#262626;stroke-width:1.25;stroke-linecap:square;stroke-linejoin:miter;stroke-miterlimit:10;stroke-dasharray:none;stroke-opacity:1"
         d="M 44.175,277.2 H 421.2" /><path
         id="path156"
         style="fill:none;stroke:#1f77b4;stroke-width:1.5;stroke-linecap:round;stroke-linejoin:round;stroke-miterlimit:10;stroke-dasharray:none;stroke-opacity:1"
         d="m 274.21562,264.7 h 20" /><g
         transform="translate(302.21562,261.2)"
         id="g158"><text
           id="text162"
           style="font-variant:normal;font-weight:normal;font-size:10px;font-family:STIXGeneral;-inkscape-font-specification:STIXGeneral-Regular;writing-mode:lr-tb;fill:#262626;fill-opacity:1;fill-rule:nonzero;stroke:none"
           transform="scale(1,-1)"><tspan
             id="tspan160"
             y="0"
             x="0 7.2199998 11.11 13.89 18.889999 23.889999 26.389999 33.610001 38.610001 43.610001 46.939999 53.049999 56.380001 61.380001 66.379997 70.82 75.260002 78.040001 82.480003 87.480003 89.980003 95.550003 98.879997 101.66 106.66">Using Non-Truncated Prior</tspan></text>
</g><path
         id="path164"
         style="fill:none;stroke:#ff7f0e;stroke-width:1.5;stroke-linecap:butt;stroke-linejoin:round;stroke-miterlimit:10;stroke-dasharray:5.55, 2.4;stroke-dashoffset:0;stroke-opacity:1"
         d="m 274.21562,250.5125 h 20" /><g
         transform="translate(302.21562,247.0125)"
         id="g166"><text
           id="text170"
           style="font-variant:normal;font-weight:normal;font-size:10px;font-family:STIXGeneral;-inkscape-font-specification:STIXGeneral-Regular;writing-mode:lr-tb;fill:#262626;fill-opacity:1;fill-rule:nonzero;stroke:none"
           transform="scale(1,-1)"><tspan
             id="tspan168"
             y="0"
             x="0 7.2199998 11.11 13.89 18.889999 23.889999 26.389999 32.5 35.830002 40.830002 45.830002 50.27 54.709999 57.490002 61.93 66.93 69.43 75 78.330002 81.110001 86.110001">Using Truncated Prior</tspan></text>
</g></g></g></svg>