<?xml version="1.0" encoding="UTF-8" standalone="no"?>
<svg
   xmlns:dc="http://purl.org/dc/elements/1.1/"
   xmlns:cc="http://creativecommons.org/ns#"
   xmlns:rdf="http://www.w3.org/1999/02/22-rdf-syntax-ns#"
   xmlns:svg="http://www.w3.org/2000/svg"
   xmlns="http://www.w3.org/2000/svg"
   viewBox="0 0 576 384"
   height="384"
   width="576"
   xml:space="preserve"
   id="svg2"
   version="1.1"><metadata
     id="metadata8"><rdf:RDF><cc:Work
         rdf:about=""><dc:format>image/svg+xml</dc:format><dc:type
           rdf:resource="http://purl.org/dc/dcmitype/StillImage" /></cc:Work></rdf:RDF></metadata><defs
     id="defs6"><clipPath
       id="clipPath80"
       clipPathUnits="userSpaceOnUse"><path
         id="path78"
         d="M -970,-305 H 1429 V 1023 H -970 Z" /></clipPath><clipPath
       id="clipPath144"
       clipPathUnits="userSpaceOnUse"><path
         id="path142"
         d="M 41.675,41.315625 H 421.2 V 277.2 H 41.675 Z" /></clipPath><clipPath
       id="clipPath154"
       clipPathUnits="userSpaceOnUse"><path
         id="path152"
         d="M 41.675,41.315625 H 421.2 V 277.2 H 41.675 Z" /></clipPath></defs><g
     transform="matrix(1.3333333,0,0,-1.3333333,0,384)"
     id="g10"><path
       id="path12"
       style="fill:#ffffff;fill-opacity:1;fill-rule:nonzero;stroke:none"
       d="M 0,0 H 432 V 288 H 0 Z" /><path
       id="path14"
       style="fill:#ffffff;fill-opacity:1;fill-rule:nonzero;stroke:none"
       d="M 41.675,41.315625 H 421.2 V 277.2 H 41.675 Z" /><g
       transform="translate(52.676136,30.9875)"
       id="g16"><text
         id="text20"
         style="font-variant:normal;font-weight:normal;font-size:10px;font-family:STIXGeneral;-inkscape-font-specification:STIXGeneral-Regular;writing-mode:lr-tb;fill:#262626;fill-opacity:1;fill-rule:nonzero;stroke:none"
         transform="scale(1,-1)"><tspan
           id="tspan18"
           y="0"
           x="0 5 7.5">8.0</tspan></text>
</g><g
       transform="translate(95.803977,30.9875)"
       id="g22"><text
         id="text26"
         style="font-variant:normal;font-weight:normal;font-size:10px;font-family:STIXGeneral;-inkscape-font-specification:STIXGeneral-Regular;writing-mode:lr-tb;fill:#262626;fill-opacity:1;fill-rule:nonzero;stroke:none"
         transform="scale(1,-1)"><tspan
           id="tspan24"
           y="0"
           x="0 5 7.5">8.5</tspan></text>
</g><g
       transform="translate(138.93182,30.9875)"
       id="g28"><text
         id="text32"
         style="font-variant:normal;font-weight:normal;font-size:10px;font-family:STIXGeneral;-inkscape-font-specification:STIXGeneral-Regular;writing-mode:lr-tb;fill:#262626;fill-opacity:1;fill-rule:nonzero;stroke:none"
         transform="scale(1,-1)"><tspan
           id="tspan30"
           y="0"
           x="0 5 7.5">9.0</tspan></text>
</g><g
       transform="translate(182.05966,30.9875)"
       id="g34"><text
         id="text38"
         style="font-variant:normal;font-weight:normal;font-size:10px;font-family:STIXGeneral;-inkscape-font-specification:STIXGeneral-Regular;writing-mode:lr-tb;fill:#262626;fill-opacity:1;fill-rule:nonzero;stroke:none"
         transform="scale(1,-1)"><tspan
           id="tspan36"
           y="0"
           x="0 5 7.5">9.5</tspan></text>
</g><g
       transform="translate(222.6875,30.9875)"
       id="g40"><text
         id="text44"
         style="font-variant:normal;font-weight:normal;font-size:10px;font-family:STIXGeneral;-inkscape-font-specification:STIXGeneral-Regular;writing-mode:lr-tb;fill:#262626;fill-opacity:1;fill-rule:nonzero;stroke:none"
         transform="scale(1,-1)"><tspan
           id="tspan42"
           y="0"
           x="0 5 10 12.5">10.0</tspan></text>
</g><g
       transform="translate(265.81534,30.9875)"
       id="g46"><text
         id="text50"
         style="font-variant:normal;font-weight:normal;font-size:10px;font-family:STIXGeneral;-inkscape-font-specification:STIXGeneral-Regular;writing-mode:lr-tb;fill:#262626;fill-opacity:1;fill-rule:nonzero;stroke:none"
         transform="scale(1,-1)"><tspan
           id="tspan48"
           y="0"
           x="0 5 10 12.5">10.5</tspan></text>
</g><g
       transform="translate(308.94318,30.9875)"
       id="g52"><text
         id="text56"
         style="font-variant:normal;font-weight:normal;font-size:10px;font-family:STIXGeneral;-inkscape-font-specification:STIXGeneral-Regular;writing-mode:lr-tb;fill:#262626;fill-opacity:1;fill-rule:nonzero;stroke:none"
         transform="scale(1,-1)"><tspan
           id="tspan54"
           y="0"
           x="0 5 10 12.5">11.0</tspan></text>
</g><g
       transform="translate(352.07102,30.9875)"
       id="g58"><text
         id="text62"
         style="font-variant:normal;font-weight:normal;font-size:10px;font-family:STIXGeneral;-inkscape-font-specification:STIXGeneral-Regular;writing-mode:lr-tb;fill:#262626;fill-opacity:1;fill-rule:nonzero;stroke:none"
         transform="scale(1,-1)"><tspan
           id="tspan60"
           y="0"
           x="0 5 10 12.5">11.5</tspan></text>
</g><g
       transform="translate(395.19886,30.9875)"
       id="g64"><text
         id="text68"
         style="font-variant:normal;font-weight:normal;font-size:10px;font-family:STIXGeneral;-inkscape-font-specification:STIXGeneral-Regular;writing-mode:lr-tb;fill:#262626;fill-opacity:1;fill-rule:nonzero;stroke:none"
         transform="scale(1,-1)"><tspan
           id="tspan66"
           y="0"
           x="0 5 10 12.5">12.0</tspan></text>
</g><g
       transform="translate(227.9375,15.253125)"
       id="g70"><g
         transform="matrix(0.014,0,0,0.014,0,0.515625)"
         id="g72"><g
           id="g74"><g
             clip-path="url(#clipPath80)"
             id="g76"><path
               id="path82"
               style="fill:#262626;fill-opacity:1;fill-rule:nonzero;stroke:none"
               d="M 494,511 C 494,434 481,361 457,291 432,221 400,159 360,106 301,28 233,-10 155,-10 115,-10 83,5 61,35 38,65 27,107 27,161 c 0,100 21,193 65,278 44,85 96,151 157,197 37,28 78,42 122,42 37,0 67,-14 89,-41 22,-28 34,-70 34,-126 z M 147,347 h 233 c 20,68 30,136 30,205 0,70 -18,105 -53,105 -27,0 -56,-21 -87,-61 C 238,555 212,512 192,467 172,422 157,382 147,347 Z M 373,315 H 140 C 120,264 111,209 111,150 111,56 129,10 167,10 c 22,0 45,11 69,33 23,22 43,49 61,83 18,33 33,66 46,99 13,32 23,62 30,90 z" /></g></g></g></g><g
       transform="translate(33.175,48.62358)"
       id="g84"><text
         id="text88"
         style="font-variant:normal;font-weight:normal;font-size:10px;font-family:STIXGeneral;-inkscape-font-specification:STIXGeneral-Regular;writing-mode:lr-tb;fill:#262626;fill-opacity:1;fill-rule:nonzero;stroke:none"
         transform="scale(1,-1)"><tspan
           id="tspan86"
           y="0"
           x="0">0</tspan></text>
</g><g
       transform="translate(33.175,77.261915)"
       id="g90"><text
         id="text94"
         style="font-variant:normal;font-weight:normal;font-size:10px;font-family:STIXGeneral;-inkscape-font-specification:STIXGeneral-Regular;writing-mode:lr-tb;fill:#262626;fill-opacity:1;fill-rule:nonzero;stroke:none"
         transform="scale(1,-1)"><tspan
           id="tspan92"
           y="0"
           x="0">2</tspan></text>
</g><g
       transform="translate(33.175,105.90025)"
       id="g96"><text
         id="text100"
         style="font-variant:normal;font-weight:normal;font-size:10px;font-family:STIXGeneral;-inkscape-font-specification:STIXGeneral-Regular;writing-mode:lr-tb;fill:#262626;fill-opacity:1;fill-rule:nonzero;stroke:none"
         transform="scale(1,-1)"><tspan
           id="tspan98"
           y="0"
           x="0">4</tspan></text>
</g><g
       transform="translate(33.175,134.53858)"
       id="g102"><text
         id="text106"
         style="font-variant:normal;font-weight:normal;font-size:10px;font-family:STIXGeneral;-inkscape-font-specification:STIXGeneral-Regular;writing-mode:lr-tb;fill:#262626;fill-opacity:1;fill-rule:nonzero;stroke:none"
         transform="scale(1,-1)"><tspan
           id="tspan104"
           y="0"
           x="0">6</tspan></text>
</g><g
       transform="translate(33.175,163.17692)"
       id="g108"><text
         id="text112"
         style="font-variant:normal;font-weight:normal;font-size:10px;font-family:STIXGeneral;-inkscape-font-specification:STIXGeneral-Regular;writing-mode:lr-tb;fill:#262626;fill-opacity:1;fill-rule:nonzero;stroke:none"
         transform="scale(1,-1)"><tspan
           id="tspan110"
           y="0"
           x="0">8</tspan></text>
</g><g
       transform="translate(28.175,191.81525)"
       id="g114"><text
         id="text118"
         style="font-variant:normal;font-weight:normal;font-size:10px;font-family:STIXGeneral;-inkscape-font-specification:STIXGeneral-Regular;writing-mode:lr-tb;fill:#262626;fill-opacity:1;fill-rule:nonzero;stroke:none"
         transform="scale(1,-1)"><tspan
           id="tspan116"
           y="0"
           x="0 5">10</tspan></text>
</g><g
       transform="translate(28.175,220.45359)"
       id="g120"><text
         id="text124"
         style="font-variant:normal;font-weight:normal;font-size:10px;font-family:STIXGeneral;-inkscape-font-specification:STIXGeneral-Regular;writing-mode:lr-tb;fill:#262626;fill-opacity:1;fill-rule:nonzero;stroke:none"
         transform="scale(1,-1)"><tspan
           id="tspan122"
           y="0"
           x="0 5">12</tspan></text>
</g><g
       transform="translate(28.175,249.09192)"
       id="g126"><text
         id="text130"
         style="font-variant:normal;font-weight:normal;font-size:10px;font-family:STIXGeneral;-inkscape-font-specification:STIXGeneral-Regular;writing-mode:lr-tb;fill:#262626;fill-opacity:1;fill-rule:nonzero;stroke:none"
         transform="scale(1,-1)"><tspan
           id="tspan128"
           y="0"
           x="0 5">14</tspan></text>
</g><g
       transform="rotate(90,-58.174219,79.302344)"
       id="g132"><text
         id="text136"
         style="font-variant:normal;font-weight:normal;font-size:14px;font-family:STIXGeneral;-inkscape-font-specification:STIXGeneral-Regular;writing-mode:lr-tb;fill:#262626;fill-opacity:1;fill-rule:nonzero;stroke:none"
         transform="scale(1,-1)"><tspan
           id="tspan134"
           y="0"
           x="0 10.108 16.323999 23.323999 28.77 32.661999 36.554001">Density</tspan></text>
</g><g
       id="g138"><g
         clip-path="url(#clipPath144)"
         id="g140"><path
           id="path146"
           style="fill:none;stroke:#1f77b4;stroke-width:1.5;stroke-linecap:round;stroke-linejoin:round;stroke-miterlimit:10;stroke-dasharray:none;stroke-opacity:1"
           d="m 58.926136,52.037642 102.036734,0.109534 7.78252,0.224287 6.05301,0.391984 4.32366,0.478693 4.32357,0.715625 3.45887,0.788679 3.45886,1.015559 3.45886,1.266237 3.45886,1.526883 3.45886,1.777841 4.32366,2.520617 7.78244,4.941277 4.32357,2.6007 3.45887,1.794548 2.59414,1.098273 2.59423,0.836182 2.59415,0.53922 2.59414,0.219355 2.59415,-0.109943 2.59414,-0.434506 2.59415,-0.740495 2.59415,-1.015405 2.59414,-1.248871 3.45895,-1.94302 5.18829,-3.250857 6.91772,-4.328498 4.32358,-2.397308 3.45894,-1.655052 3.45886,-1.396412 3.45886,-1.138647 3.45886,-0.898512 3.45886,-0.686881 4.32358,-0.612743 5.18838,-0.462992 6.053,-0.291749 8.64716,-0.169585 17.29439,-0.06105 81.28356,-0.003 v 0" /></g></g><g
       id="g148"><g
         clip-path="url(#clipPath154)"
         id="g150"><path
           id="path156"
           style="fill:none;stroke:#ff7f0e;stroke-width:1.5;stroke-linecap:butt;stroke-linejoin:round;stroke-miterlimit:10;stroke-dasharray:5.55, 2.4;stroke-dashoffset:0;stroke-opacity:1"
           d="m 58.926136,52.037642 51.018374,0.0923 4.32365,0.187653 3.45887,0.380754 2.59414,0.57629 1.72943,0.627019 1.72943,0.926839 1.72943,1.360899 0.86472,0.899868 0.86471,1.08504 0.86472,1.306113 0.86471,1.5696 0.86472,1.883078 0.86471,2.255372 0.86472,2.696737 0.86471,3.219034 0.86472,3.836067 0.86472,4.563631 0.86479,5.420638 0.86472,6.426491 0.86471,7.606798 0.86472,8.988687 0.86471,10.60358 0.86472,12.48758 0.86471,14.68126 0.86472,17.23113 0.86472,20.18954 0.86471,23.61571 0.86472,27.57629 0.86471,32.14634 0.86472,-214.440341 h 258.55086 v 0" /></g></g><g
       id="g158"><path
         id="path160"
         style="fill:none;stroke:#262626;stroke-width:1.25;stroke-linecap:square;stroke-linejoin:miter;stroke-miterlimit:10;stroke-dasharray:none;stroke-opacity:1"
         d="M 41.675,41.315625 V 277.2" /><path
         id="path162"
         style="fill:none;stroke:#262626;stroke-width:1.25;stroke-linecap:square;stroke-linejoin:miter;stroke-miterlimit:10;stroke-dasharray:none;stroke-opacity:1"
         d="M 421.2,41.315625 V 277.2" /><path
         id="path164"
         style="fill:none;stroke:#262626;stroke-width:1.25;stroke-linecap:square;stroke-linejoin:miter;stroke-miterlimit:10;stroke-dasharray:none;stroke-opacity:1"
         d="M 41.675,41.315625 H 421.2" /><path
         id="path166"
         style="fill:none;stroke:#262626;stroke-width:1.25;stroke-linecap:square;stroke-linejoin:miter;stroke-miterlimit:10;stroke-dasharray:none;stroke-opacity:1"
         d="M 41.675,277.2 H 421.2" /><path
         id="path168"
         style="fill:none;stroke:#1f77b4;stroke-width:1.5;stroke-linecap:round;stroke-linejoin:round;stroke-miterlimit:10;stroke-dasharray:none;stroke-opacity:1"
         d="m 215.41562,259.7 h 28" /><g
         transform="translate(254.61562,254.8)"
         id="g170"><text
           id="text174"
           style="font-variant:normal;font-weight:normal;font-size:14px;font-family:STIXGeneral;-inkscape-font-specification:STIXGeneral-Regular;writing-mode:lr-tb;fill:#262626;fill-opacity:1;fill-rule:nonzero;stroke:none"
           transform="scale(1,-1)"><tspan
             id="tspan172"
             y="0"
             x="0 10.108 15.554 19.445999 26.445999 33.445999 36.945999 47.054001 54.054001 61.054001 65.716003 74.269997 78.931999 85.931999 92.931999 99.148003 105.364 109.256 115.472 122.472 125.972 133.77 138.43201 142.32401 149.32401">Using Non-Truncated Prior</tspan></text>
</g><path
         id="path176"
         style="fill:none;stroke:#ff7f0e;stroke-width:1.5;stroke-linecap:butt;stroke-linejoin:round;stroke-miterlimit:10;stroke-dasharray:5.55, 2.4;stroke-dashoffset:0;stroke-opacity:1"
         d="m 215.41562,239.85312 h 28" /><g
         transform="translate(254.61562,234.95312)"
         id="g178"><text
           id="text182"
           style="font-variant:normal;font-weight:normal;font-size:14px;font-family:STIXGeneral;-inkscape-font-specification:STIXGeneral-Regular;writing-mode:lr-tb;fill:#262626;fill-opacity:1;fill-rule:nonzero;stroke:none"
           transform="scale(1,-1)"><tspan
             id="tspan180"
             y="0"
             x="0 10.108 15.554 19.445999 26.445999 33.445999 36.945999 45.5 50.161999 57.161999 64.162003 70.377998 76.594002 80.486 86.702003 93.702003 97.202003 105 109.662 113.554 120.554">Using Truncated Prior</tspan></text>
</g></g></g></svg>